{"title":"Vive la France (2013) x264 aac Ukrainian subtitles","uid":8953377,"size":800259621,"categoryP":"video","categoryS":"handheld","magnet":"?xt=urn:btih:d52af8b670c6f56700f087dc8530d9d37550bef2&amp;dn=Vive+la+France+%282013%29+x264+aac+Ukrainian+subtitles&amp;tr=udp%3A%2F%2Ftracker.openbittorrent.com%3A80&amp;tr=udp%3A%2F%2Fopen.demonii.com%3A1337&amp;tr=udp%3A%2F%2Ftracker.coppersurfer.tk%3A6969&amp;tr=udp%3A%2F%2Fexodus.desync.com%3A6969","seeders":0,"leechers":0,"uploader":"orysia","files":-1,"time":1379944691,"description":" Vive la France.2013.mp4\nFormat : MPEG-4\nFormat profile : Base Media\nCodec ID : isom\nFile size : 763 MiB\nDuration : 1h 36mn\nOverall bit rate : 1 101 Kbps\nMovie name : Vive la France*2013 /antusyrzhuk\nGenre : Comedy\nRecorded date : 2013\nWriting application : ShanaEncoder\nComment :\n\nVideo\nID : 1\nFormat : AVC\nFormat/Info : Advanced Video Codec\nFormat profile : &lt;a class=&quot;__cf_email__&quot; href=&quot;/cdn-cgi/l/email-protection&quot; data-cfemail=&quot;2a62434d426a6619041b&quot;&gt;[email&amp;#160;protected]&lt;/a&gt;&lt;script cf-hash='f9e31' type=&quot;text/javascript&quot;&gt;\n/* &lt;![CDATA[ */!function(){try{var t=&quot;currentScript&quot;in document?document.currentScript:function(){for(var t=document.getElementsByTagName(&quot;script&quot;),e=t.length;e--;)if(t[e].getAttribute(&quot;cf-hash&quot;))return t[e]}();if(t&amp;&amp;t.previousSibling){var e,r,n,i,c=t.previousSibling,a=c.getAttribute(&quot;data-cfemail&quot;);if(a){for(e=&quot;&quot;,r=parseInt(a.substr(0,2),16),n=2;a.length-n;n+=2)i=parseInt(a.substr(n,2),16)^r,e+=String.fromCharCode(i);e=document.createTextNode(e),c.parentNode.replaceChild(e,c)}}}catch(u){}}();/* ]]&gt; */&lt;/script&gt;\nFormat settings, CABAC : Yes\nFormat settings, ReFrames : 4 frames\nCodec ID : avc1\nCodec ID/Info : Advanced Video Coding\nDuration : 1h 36mn\nBit rate : 980 Kbps\nWidth : 800 pixels\nHeight : 500 pixels\nDisplay aspect ratio : 16:10\nFrame rate mode : Variable\nFrame rate : 24.000 fps\nMinimum frame rate : 23.814 fps\nMaximum frame rate : 24.381 fps\nColor space : YUV\nChroma subsampling : 4:2:0\nBit depth : 8 bits\nScan type : Progressive\nBits/(Pixel*Frame) : 0.102\nStream size : 679 MiB (89%)\nWriting library : x264 core 123 r2189 35cf912\nEncoding settings : cabac=1 // deblock=1:0:0 / analyse=0x3:0x113 / me=umh / subme=7 / psy=1 / psy_rd=1.00:0.00 // me_range=16 / chroma_me=1 / trellis=1 / 8x8dct=1 / cqm=0 / deadzone=21,11 / fast_pskip=1 / chroma_qp_offset=-2 / threads=3 / sliced_threads=0 / nr=0 / decimate=1 / interlaced=0 / bluray_compat=0 / constrained_intra=0 / bframes=3 / b_pyramid=2 / b_adapt=0 / b_bias=0 / direct=3 / weightb=1 / open_gop=0 / weightp=2 / keyint=250 / keyint_min=24 / scenecut=40 / intra_refresh=0 / rc_lookahead=40 / rc=2pass / mbtree=1 / bitrate=980 / ratetol=1.0 / qcomp=0.60 / qpmin=10 / qpmax=51 / qpstep=4 / cplxblur=20.0 / qblur=0.5 / ip_ratio=1.00 / aq=1:1.00\n\nAudio\nID : 2\nFormat : AAC\nFormat/Info : Advanced Audio Codec\nFormat profile : LC\nCodec ID : 40\nDuration : 1h 36mn\nBit rate mode : Constant\nBit rate : 115 Kbps\nChannel count : 2 channels\nChannel positions : Front: L R\nSampling rate : 48.0 KHz\nCompression mode : Lossy\nStream size : 79.7 MiB (10%)\n\n\nScreenshots: &lt;a href=&quot;\nhttp://img833.imageshack.us/img833/5038/9j7i.png&quot; rel=&quot;nofollow&quot; target=&quot;_NEW&quot;&gt;\nhttp://img833.imageshack.us/img833/5038/9j7i.png&lt;/a&gt; &lt;a href=&quot;\nhttp://img69.imageshack.us/img69/732/0w3o.png&quot; rel=&quot;nofollow&quot; target=&quot;_NEW&quot;&gt;\nhttp://img69.imageshack.us/img69/732/0w3o.png&lt;/a&gt; &lt;a href=&quot;\nhttp://img850.imageshack.us/img850/2822/967i.png&quot; rel=&quot;nofollow&quot; target=&quot;_NEW&quot;&gt;\nhttp://img850.imageshack.us/img850/2822/967i.png&lt;/a&gt; &lt;a href=&quot;\nhttp://img17.imageshack.us/img17/759/y0qj.png&quot; rel=&quot;nofollow&quot; target=&quot;_NEW&quot;&gt;\nhttp://img17.imageshack.us/img17/759/y0qj.png&lt;/a&gt;","torrent":{"xt":"urn:btih:d52af8b670c6f56700f087dc8530d9d37550bef2","amp;dn":"Vive+la+France+%282013%29+x264+aac+Ukrainian+subtitles","amp;tr":["udp%3A%2F%2Ftracker.openbittorrent.com%3A80","udp%3A%2F%2Fopen.demonii.com%3A1337","udp%3A%2F%2Ftracker.coppersurfer.tk%3A6969","udp%3A%2F%2Fexodus.desync.com%3A6969"],"infoHash":"d52af8b670c6f56700f087dc8530d9d37550bef2","infoHashBuffer":{"type":"Buffer","data":[213,42,248,182,112,198,245,103,0,240,135,220,133,48,217,211,117,80,190,242]},"announce":[],"urlList":[]}}